<?xml version="1.0" encoding="utf-8"?>
<!-- Uploaded to: SVG Repo, www.svgrepo.com, Generator: SVG Repo Mixer Tools -->
<svg xmlns="http://www.w3.org/2000/svg" xmlns:xlink="http://www.w3.org/1999/xlink" version="1.1" id="cloudyday"  viewBox="0 0 228 215.3127" enable-background="new 0 0 228 215.3127" xml:space="preserve" width="18" height="18">
<g>
	<path fill="#D0E8FF" d="M74,99.3116c0.6016,0,1.1992,0.0098,1.7949,0.0312c6.2319-15.8301,19.3372-27.7246,35.4021-33.0059   C106.8625,41.3595,85.49,23.3116,60,23.3116c-28.6738,0-52,23.3262-52,52c0,18.4478,9.7439,35.3857,25.541,44.7402   C42.635,107.5128,57.3608,99.3116,74,99.3116z"/>
	<path fill="#D0E8FF" d="M111.959,167.8116c-0.3555,0-0.709,0.0098-1.0605,0.0273c-1.0723,0.0625-2.1641-0.3398-2.9609-1.0938   c-0.7949-0.7559-1.2441-1.8047-1.2441-2.9004c0-15.748-13.5312-28.5332-30.1621-28.5332c-13.2266,0-24.7891,8-28.7695,19.9062   c-0.5918,1.7695-2.3262,2.9082-4.1797,2.7129c-0.8164-0.0781-1.6445-0.1191-2.4805-0.1191   c-13.8418,0-25.1016,11.1035-25.1016,24.75s11.2598,24.75,25.1016,24.75c0.3711,0,0.7402-0.0078,1.1074-0.0234   c0.2148-0.0059,0.4258,0,0.6328,0.0234h69.877c0.0957-0.0117,0.1934-0.0215,0.293-0.0254   c10.6484-0.543,18.9883-9.207,18.9883-19.7246C132,176.671,123.0098,167.8116,111.959,167.8116z"/>
	<path fill="#5CB0FF" d="M186,123.3116l-0.6367,0.0039c-0.498,0.0039-0.9824,0.0098-1.4688-0.0059   c-2.168-0.0566-3.8945-1.8301-3.8945-3.998c0-26.4668-22.4297-48-50-48c-21.9004,0-41.0566,13.4531-47.6699,33.4746   c-0.5879,1.7793-2.3398,2.9316-4.1895,2.7266c-1.3613-0.1328-2.7441-0.2012-4.1406-0.2012c-23.1582,0-42,18.8418-42,42   c0.001,0.2075,0.0398,0.8667,0.1072,1.7612c2.8645-0.8022,5.8738-1.2612,8.9944-1.2612c0.0566,0,0.1133,0,0.1719,0   c5.8652-13.5762,19.6602-22.5,35.2578-22.5c19.6699,0,35.9121,14.3066,37.9473,32.6113   C128.7637,161.1886,140,173.1007,140,187.5616c0,1.2715-0.1162,2.5151-0.2837,3.7427l48.2661-0.0435   C205.8477,190.3351,220,175.421,220,157.3116C220,138.5636,204.748,123.3116,186,123.3116z"/>
	<path fill="#1C71DA" d="M187.8574,115.3527c-2.1113-29.0391-27.2539-52.041-57.8574-52.041c-3.77,0-7.4573,0.3848-11.0505,1.0508   C113.7075,35.8517,89.2024,15.3116,60,15.3116c-33.084,0-60,26.916-60,60c0,21.251,11.2056,40.7637,29.377,51.5684   C25.9666,133.6359,24,141.2408,24,149.3116c0,0.8379,0.1748,3.0791,0.3628,5.0444C14.5903,160.0558,8,170.549,8,182.5616   c0,18.3691,15.5566,33.2871,34.041,32.7363c0.1074,0.0098,0.2168,0.0137,0.3262,0.0137h70.8574   c0.248,0,0.4922-0.0234,0.7305-0.0684c10.4385-0.7266,19.2-7.073,23.3887-15.937l50.8477-0.0513   C210.5137,198.1066,228,179.6827,228,157.3116C228,134.7745,210.1582,116.3273,187.8574,115.3527z M8,75.3116   c0-28.6738,23.3262-52,52-52c25.49,0,46.8625,18.0479,51.197,43.0254c-16.0649,5.2812-29.1702,17.1758-35.4021,33.0059   c-0.5957-0.0215-1.1934-0.0312-1.7949-0.0312c-16.6392,0-31.365,8.2012-40.459,20.7402C17.7439,110.6974,8,93.7594,8,75.3116z    M113.0117,207.2863c-0.0996,0.0039-0.1973,0.0137-0.293,0.0254h-69.877c-0.207-0.0234-0.418-0.0293-0.6328-0.0234   c-0.3672,0.0156-0.7363,0.0234-1.1074,0.0234c-13.8418,0-25.1016-11.1035-25.1016-24.75s11.2598-24.75,25.1016-24.75   c0.8359,0,1.6641,0.041,2.4805,0.1191c1.8535,0.1953,3.5879-0.9434,4.1797-2.7129c3.9805-11.9062,15.543-19.9062,28.7695-19.9062   c16.6309,0,30.1621,12.7852,30.1621,28.5332c0,1.0957,0.4492,2.1445,1.2441,2.9004c0.7969,0.7539,1.8887,1.1562,2.9609,1.0938   c0.3516-0.0176,0.7051-0.0273,1.0605-0.0273c11.0508,0,20.041,8.8594,20.041,19.75   C132,198.0792,123.6602,206.7433,113.0117,207.2863z M187.9824,191.2609l-48.2661,0.0435   c0.1675-1.2275,0.2837-2.4712,0.2837-3.7427c0-14.4609-11.2363-26.373-25.5215-27.6387   c-2.0352-18.3047-18.2773-32.6113-37.9473-32.6113c-15.5977,0-29.3926,8.9238-35.2578,22.5c-0.0586,0-0.1152,0-0.1719,0   c-3.1206,0-6.1299,0.459-8.9944,1.2612c-0.0674-0.8945-0.1062-1.5537-0.1072-1.7612c0-23.1582,18.8418-42,42-42   c1.3965,0,2.7793,0.0684,4.1406,0.2012c1.8496,0.2051,3.6016-0.9473,4.1895-2.7266C88.9434,84.7648,108.0996,71.3116,130,71.3116   c27.5703,0,50,21.5332,50,48c0,2.168,1.7266,3.9414,3.8945,3.998c0.4863,0.0156,0.9707,0.0098,1.4688,0.0059L186,123.3116   c18.748,0,34,15.252,34,34C220,175.421,205.8477,190.3351,187.9824,191.2609z"/>
</g>
<path fill="#FF5D5D" d="M128.3854,22.1438c-1.0239,0-2.0474-0.3906-2.8286-1.1714c-1.562-1.5625-1.562-4.0947,0-5.6572  l14.1421-14.1421c1.5625-1.5615,4.0947-1.5615,5.6572,0c1.562,1.5625,1.562,4.0947,0,5.6572L131.214,20.9724  C130.4328,21.7532,129.4093,22.1438,128.3854,22.1438z"/>
<path fill="#FF5D5D" d="M142.5275,22.1418c-1.0239,0-2.0474-0.3906-2.8286-1.1714L125.5568,6.8284  c-1.562-1.5625-1.562-4.0947,0-5.6572c1.5625-1.5615,4.0947-1.5615,5.6572,0l14.1421,14.1421c1.562,1.5625,1.562,4.0947,0,5.6572  C144.5748,21.7512,143.5514,22.1418,142.5275,22.1418z"/>
<path fill="#00D40B" d="M202.3854,90.1438c-7.7197,0-14-6.2803-14-14s6.2803-14,14-14s14,6.2803,14,14  S210.1051,90.1438,202.3854,90.1438z M202.3854,70.1438c-3.3086,0-6,2.6914-6,6s2.6914,6,6,6s6-2.6914,6-6  S205.694,70.1438,202.3854,70.1438z"/>
<path fill="#FFC504" d="M131.6989,136.7712L131.6989,136.7712c-1.061,0-2.0781-0.4214-2.8286-1.1719l-11.3135-11.314  c-1.562-1.562-1.562-4.0942,0-5.6567l11.3135-11.3135c1.5625-1.5615,4.0952-1.5615,5.6567,0l11.314,11.3135  c0.7505,0.7505,1.1719,1.7676,1.1719,2.8286s-0.4214,2.0781-1.1714,2.8286l-11.314,11.314  C133.777,136.3499,132.7599,136.7712,131.6989,136.7712z M126.0421,121.4573l5.6567,5.6572l5.6572-5.6572l-5.6572-5.6567  L126.0421,121.4573z"/>
</svg>