<?xml version="1.0" encoding="UTF-8" standalone="no"?>
<svg
   width="24"
   height="24"
   viewBox="0 0 24 24"
   version="1.1"
   id="svg5"
   xmlns="http://www.w3.org/2000/svg"
   xmlns:svg="http://www.w3.org/2000/svg">
  <defs
     id="defs2">
    <style
       id="current-color-scheme"
       type="text/css">
      .ColorScheme-Text { color:#363636; }
    </style>
  </defs>
  <path
     id="rect1770"
     style="fill:currentColor;stroke-width:2;stroke-linecap:round;stroke-linejoin:round"
     class="ColorScheme-Text"
     d="m 17.536009,6.4649013 c -0.195868,-0.1958684 -0.511239,-0.1958684 -0.707107,0 L 12.00089,11.293783 7.1720082,6.4649013 c -0.1958684,-0.1958684 -0.5112384,-0.1958684 -0.7071068,0 -0.1958684,0.1958684 -0.1958684,0.5112384 0,0.7071068 L 11.293783,12.00089 6.4649014,16.828902 c -0.1958686,0.195869 -0.1958684,0.511239 0,0.707107 0.1958684,0.195868 0.5112382,0.195868 0.7071068,0 l 4.8288818,-4.828012 4.828012,4.828012 c 0.195869,0.195868 0.511239,0.195868 0.707107,0 0.195868,-0.195868 0.195868,-0.511238 0,-0.707107 L 12.707997,12.00089 17.536008,7.1720081 c 0.195868,-0.1958684 0.195868,-0.5112384 1e-6,-0.7071068 z"/>
</svg>
