<?xml version="1.0" encoding="UTF-8" standalone="no"?>
<!-- Created with Inkscape (http://www.inkscape.org/) -->

<svg
   width="24"
   height="24"
   viewBox="0 0 24 24"
   version="1.1"
   id="svg5"
   xmlns="http://www.w3.org/2000/svg"
   xmlns:svg="http://www.w3.org/2000/svg">
  <defs
     id="defs2">
    <style
       id="current-color-scheme"
       type="text/css">
      .ColorScheme-Text { color:#363636; }
    </style>
  </defs>
  <path
     id="rect436"
     style="fill:currentColor;stroke-width:2;stroke-linecap:round;stroke-linejoin:round"
     d="M 9,6 C 7.3380017,6 6,7.3380017 6,9 v 6 c 0,1.661998 1.3380017,3 3,3 h 6 c 1.661998,0 3,-1.338002 3,-3 V 9 C 18,7.3380017 16.661998,6 15,6 Z m 0,1 h 6 c 1.107997,0 2,0.8920023 2,2 v 6 c 0,1.107997 -0.892003,2 -2,2 H 9 C 7.8920023,17 7,16.107997 7,15 V 9 C 7,7.8920023 7.8920023,7 9,7 Z"
     class="ColorScheme-Text" />
</svg>
