<svg fill="#5286ff" width="24px" height="24px" viewBox="0 0 24 24" xmlns="http://www.w3.org/2000/svg" stroke="#5286ff"><g id="SVGRepo_bgCarrier" stroke-width="0"></g><g id="SVGRepo_tracerCarrier" stroke-linecap="round" stroke-linejoin="round"></g><g id="SVGRepo_iconCarrier"><path d="M16 9c-1.628 0-3 1.372-3 3s1.372 3 3 3 3-1.372 3-3-1.372-3-3-3z"></path><path d="M16 6H8c-3.296 0-5.982 2.682-6 5.986v.042A6.01 6.01 0 0 0 8 18h8c3.309 0 6-2.691 6-6s-2.691-6-6-6zm0 10H8a4.006 4.006 0 0 1-4-3.99C4.004 9.799 5.798 8 8 8h8c2.206 0 4 1.794 4 4s-1.794 4-4 4z"></path></g></svg>