<?xml version="1.0" encoding="iso-8859-1"?>
<!-- Uploaded to: SVG Repo, www.svgrepo.com, Generator: SVG Repo Mixer Tools -->
<svg height="64px" width="64px" version="1.1" id="Layer_1" xmlns="http://www.w3.org/2000/svg" xmlns:xlink="http://www.w3.org/1999/xlink" 
	 viewBox="0 0 512 512" xml:space="preserve">
<g>
	<path style="fill:#D2DCF0;" d="M116.749,4.919c-1.17,0.354-2.334,0.719-3.487,1.11c0.217-0.074,0.439-0.141,0.657-0.213
		C114.857,5.505,115.8,5.207,116.749,4.919z"/>
	<path style="fill:#D2DCF0;" d="M126.941,2.332c-0.259,0.053-0.516,0.114-0.776,0.169c0.056-0.012,0.113-0.025,0.169-0.036
		C126.537,2.421,126.738,2.374,126.941,2.332z"/>
	<path style="fill:#D2DCF0;" d="M39.191,85.09c0.104-0.39,0.207-0.778,0.316-1.166c-0.452,1.625-0.875,3.263-1.257,4.917
		c0.104-0.451,0.22-0.899,0.329-1.348C38.774,86.689,38.978,85.888,39.191,85.09z"/>
	<path style="fill:#D2DCF0;" d="M113.262,6.029c-1.227,0.415-2.441,0.857-3.648,1.313c0.332-0.126,0.662-0.257,0.996-0.378
		C111.49,6.642,112.374,6.33,113.262,6.029z"/>
	<path style="fill:#D2DCF0;" d="M150.069,0L150.069,0c-2.044,0-4.074,0.055-6.091,0.161c0.062-0.003,0.124-0.009,0.185-0.012
		C146.12,0.05,148.088,0,150.069,0z"/>
	<path style="fill:#D2DCF0;" d="M127.608,2.204c-0.222,0.044-0.446,0.083-0.666,0.128c0.179-0.036,0.36-0.067,0.54-0.104
		C127.522,2.22,127.565,2.212,127.608,2.204z"/>
	<path style="fill:#D2DCF0;" d="M138.336,0.593c-1.929,0.196-3.843,0.439-5.743,0.729C134.492,1.032,136.406,0.788,138.336,0.593z"
		/>
	<path style="fill:#D2DCF0;" d="M132.593,1.322c-0.189,0.029-0.375,0.064-0.564,0.094c0.031-0.006,0.062-0.011,0.094-0.015
		C132.279,1.376,132.435,1.346,132.593,1.322z"/>
	<path style="fill:#D2DCF0;" d="M122.281,3.395c-0.545,0.136-1.09,0.275-1.632,0.418c0.247-0.065,0.492-0.137,0.74-0.201
		C121.685,3.537,121.984,3.469,122.281,3.395z"/>
	<path style="fill:#D2DCF0;" d="M35.903,103.025c-0.392,3.859-0.593,7.773-0.593,11.734l0,0c0-2.97,0.113-5.916,0.334-8.83
		C35.719,104.958,35.805,103.99,35.903,103.025z"/>
	<path style="fill:#D2DCF0;" d="M132.593,228.195c1.899,0.29,3.815,0.534,5.743,0.729
		C136.406,228.729,134.492,228.486,132.593,228.195z"/>
	<path style="fill:#D2DCF0;" d="M361.931,0H215.94c39.727,22.856,66.542,65.634,66.542,114.759
		c0,49.123-26.815,91.903-66.542,114.759h145.991c63.38,0,114.759-51.379,114.759-114.759l0,0C476.69,51.379,425.311,0,361.931,0z"
		/>
	<path style="fill:#D2DCF0;" d="M141.239,229.183c2.914,0.222,5.858,0.334,8.83,0.334l0,0c-1.981,0-3.949-0.05-5.906-0.149
		C143.186,229.319,142.21,229.257,141.239,229.183z"/>
	<path style="fill:#D2DCF0;" d="M87.105,18.809c0.676-0.445,1.358-0.883,2.045-1.314C88.463,17.927,87.782,18.365,87.105,18.809z"/>
	<path style="fill:#D2DCF0;" d="M105.399,220.499c2.574,1.089,5.196,2.087,7.863,2.988
		C110.596,222.585,107.974,221.588,105.399,220.499z"/>
	<path style="fill:#D2DCF0;" d="M115.944,224.358c-0.898-0.279-1.792-0.569-2.68-0.871c4.444,1.504,9.01,2.743,13.678,3.698
		c-2.802-0.574-5.566-1.248-8.289-2.022C117.745,224.906,116.842,224.638,115.944,224.358z"/>
	<path style="fill:#D2DCF0;" d="M40.47,148.884c-0.279-0.898-0.548-1.802-0.806-2.709c-2.321-8.169-3.758-16.71-4.204-25.511
		c-0.1-1.956-0.15-3.925-0.15-5.906l0,0c0,27.729,9.834,53.16,26.206,72.998C52.161,176.42,44.94,163.258,40.47,148.884z"/>
	<path style="fill:#D2DCF0;" d="M99.079,11.932c0.8-0.397,1.607-0.787,2.417-1.165C100.684,11.145,99.879,11.534,99.079,11.932z"/>
	<path style="fill:#D2DCF0;" d="M85.907,209.919c-3.052-2.062-6.001-4.268-8.834-6.606
		C79.906,205.651,82.854,207.857,85.907,209.919z"/>
	<path style="fill:#D2DCF0;" d="M77.071,203.311c-2.834-2.339-5.554-4.811-8.149-7.406
		C71.518,198.502,74.238,200.973,77.071,203.311z"/>
	<path style="fill:#D2DCF0;" d="M68.922,195.905c-2.596-2.595-5.068-5.315-7.406-8.149C63.854,190.59,66.326,193.31,68.922,195.905z
		"/>
	<path style="fill:#D2DCF0;" d="M102.841,219.38c-2.542-1.15-5.034-2.389-7.474-3.713C97.807,216.992,100.3,218.23,102.841,219.38z"
		/>
	<path style="fill:#D2DCF0;" d="M132.593,228.195c-1.899-0.29-3.784-0.627-5.651-1.01
		C128.809,227.567,130.692,227.905,132.593,228.195z"/>
	<path style="fill:#D2DCF0;" d="M41.668,77.018c0.391-1.122,0.799-2.237,1.223-3.342C42.467,74.782,42.06,75.896,41.668,77.018z"/>
	<path style="fill:#D2DCF0;" d="M92.947,214.313c-2.403-1.382-4.751-2.848-7.041-4.395
		C88.195,211.465,90.545,212.931,92.947,214.313z"/>
	<path style="fill:#D2DCF0;" d="M35.903,103.025c0.196-1.929,0.439-3.843,0.729-5.743C36.342,99.181,36.098,101.096,35.903,103.025z
		"/>
</g>
<g>
	<path style="fill:#BEC8DC;" d="M121.389,3.613c-0.248,0.064-0.493,0.135-0.74,0.201c-1.309,0.346-2.609,0.715-3.9,1.107
		c-0.948,0.287-1.891,0.586-2.829,0.897C116.374,5.002,118.863,4.263,121.389,3.613z"/>
	<path style="fill:#BEC8DC;" d="M144.163,0.149c-0.062,0.003-0.124,0.009-0.185,0.012c-1.806,0.095-3.602,0.232-5.385,0.408
		c0.879-0.087,1.761-0.168,2.646-0.235C142.21,0.26,143.186,0.199,144.163,0.149z"/>
	<path style="fill:#BEC8DC;" d="M126.334,2.464c-0.056,0.012-0.113,0.024-0.169,0.036c-1.303,0.276-2.598,0.575-3.884,0.895
		c-0.297,0.074-0.596,0.141-0.892,0.217C123.022,3.192,124.673,2.813,126.334,2.464z"/>
	<path style="fill:#BEC8DC;" d="M35.31,114.759c0-2.97,0.113-5.916,0.334-8.83C35.423,108.843,35.31,111.788,35.31,114.759z"/>
	<path style="fill:#BEC8DC;" d="M38.578,87.494c-0.109,0.449-0.225,0.897-0.329,1.348c-0.641,2.776-1.181,5.591-1.617,8.44
		c-0.29,1.899-0.534,3.815-0.729,5.743c-0.098,0.964-0.184,1.932-0.258,2.904C36.125,99.627,37.121,93.47,38.578,87.494z"/>
	<path style="fill:#BEC8DC;" d="M282.483,114.759c0-49.124-26.815-91.903-66.542-114.759h-65.871
		c63.38,0,114.759,51.379,114.759,114.759s-51.379,114.759-114.759,114.759h65.871C255.668,206.662,282.483,163.882,282.483,114.759
		z"/>
	<path style="fill:#BEC8DC;" d="M92.947,15.204c0.801-0.46,1.608-0.911,2.421-1.354c2.439-1.325,4.931-2.564,7.474-3.713
		c0.847-0.383,1.7-0.756,2.558-1.119c1.716-0.726,3.454-1.411,5.212-2.055c-0.334,0.122-0.664,0.254-0.996,0.378
		c-2.759,1.039-5.466,2.183-8.119,3.424c-0.811,0.38-1.617,0.768-2.417,1.165c-3.41,1.694-6.722,3.552-9.929,5.565
		c-0.686,0.43-1.367,0.868-2.045,1.314C67.166,31.922,51.56,51.078,42.891,73.676c-0.424,1.106-0.832,2.22-1.223,3.342
		c-0.79,2.271-1.514,4.573-2.163,6.906c-0.108,0.387-0.212,0.777-0.316,1.166C47.148,55.276,66.803,30.238,92.947,15.204z"/>
	<path style="fill:#BEC8DC;" d="M132.122,1.4c-0.031,0.006-0.062,0.011-0.094,0.015c-1.483,0.234-2.957,0.498-4.42,0.788
		c-0.043,0.009-0.085,0.017-0.128,0.024C129.016,1.921,130.564,1.645,132.122,1.4z"/>
</g>
<path style="fill:#E4EAF6;" d="M264.828,114.759C264.828,51.379,213.449,0,150.069,0c-1.981,0-3.949,0.05-5.906,0.149
	c-0.978,0.05-1.953,0.111-2.924,0.185c-0.885,0.067-1.767,0.148-2.646,0.235c-0.086,0.009-0.172,0.014-0.258,0.023
	c-1.929,0.196-3.843,0.439-5.743,0.729c-0.158,0.024-0.313,0.053-0.47,0.078c-1.558,0.245-3.105,0.521-4.642,0.828
	c-0.179,0.035-0.36,0.066-0.54,0.104c-0.203,0.042-0.404,0.089-0.607,0.132c-1.661,0.35-3.311,0.729-4.945,1.15
	c-2.526,0.65-5.014,1.389-7.469,2.204c-0.218,0.073-0.439,0.14-0.657,0.213c-0.888,0.301-1.772,0.612-2.652,0.934
	c-1.758,0.643-3.496,1.329-5.212,2.055c-0.858,0.363-1.71,0.736-2.558,1.119c-2.542,1.15-5.034,2.389-7.474,3.713
	c-0.813,0.441-1.62,0.893-2.421,1.354C66.803,30.238,47.148,55.276,39.191,85.09c-0.213,0.798-0.417,1.599-0.612,2.402
	c-1.457,5.976-2.454,12.134-2.933,18.435c-0.223,2.915-0.335,5.86-0.335,8.831c0,1.981,0.05,3.949,0.149,5.906
	c0.446,8.802,1.884,17.342,4.204,25.511c0.258,0.908,0.526,1.811,0.806,2.709c4.471,14.374,11.691,27.535,21.046,38.871
	c2.339,2.834,4.811,5.554,7.406,8.149c2.595,2.596,5.315,5.068,8.149,7.406s5.782,4.544,8.834,6.606
	c2.29,1.547,4.638,3.012,7.041,4.395c0.801,0.46,1.608,0.911,2.421,1.354c2.439,1.325,4.931,2.564,7.474,3.713
	c0.847,0.383,1.7,0.756,2.558,1.119c2.574,1.089,5.196,2.087,7.863,2.988c0.888,0.3,1.782,0.59,2.68,0.871s1.802,0.548,2.709,0.806
	c2.723,0.774,5.487,1.449,8.289,2.022c1.868,0.382,3.752,0.718,5.651,1.01c1.899,0.29,3.815,0.534,5.743,0.729
	c0.964,0.098,1.932,0.184,2.904,0.258c0.971,0.074,1.946,0.136,2.924,0.185c1.956,0.099,3.925,0.149,5.906,0.149
	C213.449,229.517,264.828,178.138,264.828,114.759z M150.069,194.207c-43.879,0-79.448-35.571-79.448-79.448
	c0-43.879,35.571-79.448,79.448-79.448c43.879,0,79.448,35.571,79.448,79.448C229.517,158.637,193.948,194.207,150.069,194.207z"/>
<circle style="fill:#FFFFFF;" cx="150.069" cy="114.759" r="79.448"/>
<g>
	<path style="fill:#B4E173;" d="M475.368,379.765c0.29,1.899,0.534,3.815,0.729,5.743
		C475.902,383.578,475.658,381.664,475.368,379.765z"/>
	<path style="fill:#B4E173;" d="M463.734,344.237c0.716,1.374,1.406,2.763,2.068,4.169C465.14,347,464.451,345.611,463.734,344.237z
		"/>
	<path style="fill:#B4E173;" d="M469.109,356.159c0.424,1.106,0.832,2.22,1.223,3.342
		C469.94,358.379,469.533,357.265,469.109,356.159z"/>
	<path style="fill:#B4E173;" d="M470.943,361.305c0.405,1.229,0.79,2.466,1.154,3.713
		C471.733,363.772,471.348,362.535,470.943,361.305z"/>
	<path style="fill:#B4E173;" d="M438.247,311.544c0.587,0.523,1.169,1.053,1.746,1.588
		C439.415,312.597,438.834,312.068,438.247,311.544z"/>
	<path style="fill:#B4E173;" d="M396.056,506.84c-0.898,0.279-1.802,0.548-2.709,0.806c-8.169,2.321-16.71,3.758-25.511,4.204
		c-1.956,0.099-3.925,0.149-5.906,0.149l0,0c27.729,0,53.16-9.834,72.998-26.206C423.593,495.149,410.431,502.37,396.056,506.84z"/>
	<path style="fill:#B4E173;" d="M392.092,286.496c-1.082-0.295-2.17-0.574-3.265-0.836c0.596,0.143,1.192,0.284,1.784,0.436
		C391.107,286.223,391.598,286.362,392.092,286.496z"/>
	<path style="fill:#B4E173;" d="M401.389,289.447c0.669,0.245,1.331,0.501,1.993,0.758c-2.923-1.132-5.903-2.147-8.937-3.041
		c1.22,0.36,2.432,0.737,3.636,1.137C399.19,288.666,400.295,289.046,401.389,289.447z"/>
	<path style="fill:#B4E173;" d="M473.422,369.976c0.109,0.449,0.225,0.897,0.329,1.348c-0.382-1.654-0.804-3.292-1.257-4.917
		c0.108,0.387,0.212,0.777,0.316,1.166C473.022,368.371,473.226,369.172,473.422,369.976z"/>
	<path style="fill:#B4E173;" d="M379.878,283.883c0.22,0.034,0.438,0.073,0.657,0.109c-2.438-0.397-4.899-0.721-7.385-0.962
		c0.086,0.009,0.172,0.014,0.258,0.023C375.583,283.268,377.739,283.548,379.878,283.883z"/>
	<path style="fill:#B4E173;" d="M385.666,284.947c0.316,0.066,0.63,0.137,0.945,0.206c-0.958-0.21-1.92-0.408-2.885-0.594
		c0.265,0.051,0.531,0.099,0.794,0.152C384.903,284.788,385.284,284.866,385.666,284.947z"/>
	<path style="fill:#B4E173;" d="M368.207,282.656c-2.079-0.113-4.17-0.173-6.276-0.173l0,0c1.981,0,3.949,0.05,5.906,0.149
		C367.96,282.638,368.084,282.649,368.207,282.656z"/>
	<path style="fill:#B4E173;" d="M476.355,388.412c0.222,2.914,0.334,5.858,0.334,8.83l0,0c0-3.961-0.201-7.875-0.593-11.733
		C476.195,386.473,476.281,387.441,476.355,388.412z"/>
	<path style="fill:#B4E173;" d="M229.517,397.241c0-49.124,26.815-91.903,66.542-114.759H150.069
		c-63.38,0-114.759,51.379-114.759,114.759l0,0C35.31,460.621,86.689,512,150.069,512H296.06
		C256.332,489.144,229.517,446.365,229.517,397.241z"/>
	<path style="fill:#B4E173;" d="M472.337,428.658c-0.258,0.908-0.526,1.811-0.806,2.709c-4.471,14.374-11.691,27.535-21.046,38.871
		c16.371-19.837,26.205-45.268,26.205-72.996l0,0c0,1.981-0.05,3.949-0.149,5.906C476.094,411.948,474.656,420.489,472.337,428.658z
		"/>
	<path style="fill:#B4E173;" d="M414.175,295.037c4.443,2.275,8.713,4.839,12.796,7.652
		C422.888,299.875,418.617,297.312,414.175,295.037z"/>
	<path style="fill:#B4E173;" d="M429.57,304.535c1.334,0.975,2.647,1.977,3.937,3.009
		C432.217,306.514,430.905,305.511,429.57,304.535z"/>
	<path style="fill:#B4E173;" d="M450.484,470.239c-2.338,2.834-4.811,5.554-7.406,8.149
		C445.674,475.793,448.146,473.073,450.484,470.239z"/>
	<path style="fill:#B4E173;" d="M409.325,292.698c1.632,0.742,3.244,1.517,4.834,2.332
		C412.569,294.216,410.957,293.439,409.325,292.698z"/>
	<path style="fill:#B4E173;" d="M443.078,478.388c-2.596,2.596-5.315,5.068-8.149,7.406
		C437.762,483.456,440.482,480.984,443.078,478.388z"/>
</g>
<g>
	<path style="fill:#A2C964;" d="M472.809,367.573c-0.104-0.389-0.207-0.778-0.316-1.166c-0.129-0.465-0.263-0.927-0.397-1.388
		c-0.364-1.247-0.749-2.485-1.154-3.713c-0.199-0.604-0.403-1.205-0.611-1.804c-0.391-1.122-0.799-2.237-1.223-3.342
		c-1.01-2.632-2.113-5.217-3.307-7.753c-0.662-1.406-1.351-2.795-2.068-4.169c-6.102-11.697-14.161-22.209-23.743-31.105
		c-0.576-0.535-1.158-1.065-1.746-1.588c-1.543-1.375-3.123-2.709-4.739-4c-1.29-1.031-2.603-2.034-3.937-3.009
		c-0.857-0.627-1.724-1.242-2.6-1.846c-4.084-2.814-8.353-5.377-12.796-7.652c-0.006-0.002-0.01-0.006-0.015-0.008
		c-1.59-0.814-3.202-1.59-4.834-2.332c-1.952-0.886-3.935-1.716-5.943-2.494c-0.662-0.257-1.325-0.513-1.993-0.758
		C436.225,302.201,463.145,331.364,472.809,367.573z"/>
	<path style="fill:#A2C964;" d="M476.355,388.412c-0.074-0.971-0.16-1.94-0.258-2.904c-0.196-1.929-0.439-3.843-0.729-5.743
		c-0.436-2.849-0.975-5.664-1.617-8.44c-0.104-0.451-0.22-0.899-0.329-1.348C474.879,375.953,475.875,382.11,476.355,388.412z"/>
	<path style="fill:#A2C964;" d="M398.08,288.299c-1.203-0.399-2.415-0.777-3.636-1.137c-0.781-0.231-1.566-0.452-2.353-0.666
		c-0.493-0.135-0.985-0.274-1.481-0.401C393.137,286.745,395.626,287.485,398.08,288.299z"/>
	<path style="fill:#A2C964;" d="M384.52,284.711c-0.264-0.053-0.53-0.102-0.794-0.152c-1.058-0.203-2.122-0.393-3.19-0.567
		c-0.22-0.035-0.437-0.074-0.657-0.109C381.436,284.128,382.984,284.404,384.52,284.711z"/>
	<path style="fill:#A2C964;" d="M247.172,397.241c0-63.38,51.379-114.759,114.759-114.759H296.06
		c-39.727,22.856-66.542,65.634-66.542,114.759c0,49.123,26.815,91.903,66.542,114.759h65.871
		C298.551,512,247.172,460.621,247.172,397.241z"/>
	<path style="fill:#A2C964;" d="M476.69,397.241c0-2.97-0.113-5.916-0.334-8.83C476.577,391.326,476.69,394.271,476.69,397.241z"/>
	<path style="fill:#A2C964;" d="M373.407,283.052c-0.086-0.009-0.172-0.014-0.258-0.023c-1.638-0.159-3.285-0.285-4.941-0.374
		c-0.124-0.007-0.247-0.018-0.371-0.023C369.706,282.727,371.562,282.869,373.407,283.052z"/>
	<path style="fill:#A2C964;" d="M390.611,286.095c-0.591-0.152-1.188-0.292-1.784-0.436c-0.736-0.177-1.475-0.345-2.216-0.508
		c-0.314-0.07-0.629-0.139-0.945-0.206C387.327,285.295,388.978,285.675,390.611,286.095z"/>
</g>
<path style="fill:#E4EAF6;" d="M473.422,369.976c-0.196-0.804-0.399-1.605-0.612-2.402c-9.664-36.209-36.585-65.372-71.421-78.127
	c-1.095-0.401-2.199-0.779-3.308-1.148c-2.455-0.814-4.945-1.554-7.469-2.204c-1.634-0.42-3.284-0.8-4.945-1.15
	c-0.382-0.081-0.764-0.159-1.146-0.235c-1.537-0.307-3.084-0.584-4.642-0.828c-2.138-0.335-4.296-0.615-6.472-0.831
	c-1.845-0.183-3.701-0.326-5.57-0.42c-1.956-0.099-3.925-0.149-5.906-0.149c-63.38,0-114.759,51.379-114.759,114.759
	S298.551,512,361.931,512c1.981,0,3.949-0.05,5.906-0.149c8.802-0.446,17.342-1.885,25.511-4.204
	c0.908-0.258,1.811-0.526,2.709-0.806c14.374-4.471,27.537-11.691,38.871-21.046c2.834-2.339,5.554-4.811,8.149-7.406
	c2.596-2.595,5.068-5.315,7.406-8.149c9.355-11.336,16.575-24.498,21.046-38.871c0.279-0.898,0.548-1.802,0.806-2.709
	c2.321-8.169,3.758-16.71,4.204-25.511c0.099-1.956,0.149-3.925,0.149-5.906c0-2.97-0.113-5.916-0.334-8.83
	C475.875,382.11,474.879,375.953,473.422,369.976z M361.931,476.69c-43.879,0-79.448-35.57-79.448-79.448
	c0-43.878,35.571-79.448,79.448-79.448c43.879,0,79.448,35.57,79.448,79.448C441.379,441.119,405.81,476.69,361.931,476.69z"/>
<circle style="fill:#FFFFFF;" cx="361.931" cy="397.241" r="79.448"/>
</svg>