<svg height="20px" width="20px" version="1.1" id="Layer_1" xmlns="http://www.w3.org/2000/svg" xmlns:xlink="http://www.w3.org/1999/xlink" viewBox="0 0 509.53 509.53" xml:space="preserve" fill="#000000">
    <g id="SVGRepo_bgCarrier" stroke-width="0"></g>
    <g id="SVGRepo_tracerCarrier" stroke-linecap="round" stroke-linejoin="round"></g>
    <g id="SVGRepo_iconCarrier">
        <path style="fill:#cabd2b;" d="M367.832,243.649L266.33,142.147L386.695,20.884c27.846-27.846,73.656-27.846,101.502,0 s27.846,73.656,0,101.502L367.832,243.649z"></path> 
        <path style="fill:#8697CB;" d="M395.677,72.084c-2.695,0-4.491-0.898-6.288-2.695c-3.593-3.593-3.593-8.982,0-12.575l16.168-16.168 c8.982-8.982,20.66-13.474,32.337-13.474s23.354,4.491,31.439,13.474c3.593,3.593,3.593,8.982,0,12.575 c-3.593,3.593-8.982,3.593-12.575,0c-9.881-9.881-27.846-9.881-37.726,0l-17.067,16.168 C401.067,71.186,398.372,72.084,395.677,72.084z"></path> 
        <path style="fill:#D9DBDB;" d="M339.088,291.256L218.723,170.891c-1.796-1.797-1.796-4.491,0-6.288l31.439-31.439 c1.796-1.796,4.491-1.796,6.288,0L376.814,253.53c1.797,1.796,1.797,4.491,0,6.288l-31.439,31.439 C344.477,293.053,340.884,293.053,339.088,291.256"></path> <path style="fill:#ECF0F1;" d="M5.839,504.14L5.839,504.14c-7.186-7.186-7.186-17.965,0-25.151l9.881-9.881 c9.881-10.779,17.067-23.354,18.863-37.726s8.982-27.846,18.863-37.726l194.021-194.021l63.775,63.775L117.221,456.533 c-9.881,9.881-23.354,17.067-37.726,18.863l0,0c-14.372,1.796-27.846,8.982-37.726,18.863l-9.881,9.881 C24.702,511.326,13.025,511.326,5.839,504.14"></path> 
        <path style="fill:#B0D3F0;" d="M104.646,341.558l-51.2,51.2c-9.881,9.881-17.067,23.354-18.863,37.726 c-1.796,14.372-8.982,27.846-18.863,37.726l-9.881,9.881c-7.186,7.186-7.186,17.965,0,25.151c7.186,7.186,17.965,7.186,25.151,0 l9.881-8.982c10.779-9.881,23.354-17.067,37.726-18.863l0,0c14.372-1.797,27.846-8.982,37.726-18.863l115.874-114.975H104.646z"></path> 
    </g>
</svg>