<svg height="64px" width="64px" version="1.1" id="Layer_1" xmlns="http://www.w3.org/2000/svg" xmlns:xlink="http://www.w3.org/1999/xlink" viewBox="-51.2 -51.2 614.40 614.40" xml:space="preserve" fill="#000000"><g id="SVGRepo_bgCarrier" stroke-width="0"></g><g id="SVGRepo_tracerCarrier" stroke-linecap="round" stroke-linejoin="round"></g><g id="SVGRepo_iconCarrier"> <path style="fill:#FF6469;" d="M213.64,237.003c-4.16-2.334-5.672-7.551-3.427-11.74l-22.923-12.734 c-1.624,2.725-4.511,4.267-7.496,4.267c-1.441,0-2.907-0.358-4.254-1.109l-38.096-21.316c-4.083-2.292-5.61-7.357-3.544-11.504 l-22.947-12.749c-1.647,2.583-4.45,4.045-7.351,4.045c-1.441,0-2.907-0.358-4.254-1.109l-34.154-19.11v213.361l182.262-111.382 L213.64,237.003z"></path> <path style="fill:#B4E173;" d="M408.398,174.162c-2.901,0-5.704-1.461-7.351-4.045l-22.947,12.749 c2.066,4.147,0.539,9.212-3.544,11.504l-38.096,21.316c-1.347,0.751-2.814,1.109-4.254,1.109c-2.985,0-5.872-1.542-7.496-4.267 l-22.923,12.734c2.244,4.189,0.732,9.406-3.427,11.74l-33.814,18.919l182.261,111.382V153.943l-34.154,19.11 C411.306,173.804,409.84,174.162,408.398,174.162z"></path> <path style="fill:#FFCD73;" d="M111.228,169.694c-0.084,0.15-0.186,0.281-0.276,0.423l22.947,12.749 c0.063-0.127,0.119-0.256,0.189-0.382c2.349-4.204,7.674-5.712,11.882-3.359l38.096,21.316c4.207,2.362,5.712,7.674,3.355,11.886 c-0.039,0.071-0.089,0.131-0.131,0.201l22.923,12.734c0.026-0.048,0.046-0.098,0.072-0.146c2.344-4.204,7.662-5.712,11.882-3.359 l33.833,18.931V38.691L74.849,139.331l33.023,18.478C112.081,160.171,113.586,165.483,111.228,169.694z"></path> <path style="fill:#D75055;" d="M256.001,450.882v-26.193c-4.822,0-8.731-3.905-8.731-8.731v-43.656c0-4.826,3.909-8.731,8.731-8.731 v-26.193c-4.822,0-8.731-3.905-8.731-8.731V284.99c0-4.826,3.909-8.731,8.731-8.731v-16.831c-0.003,0-0.005,0-0.009,0 c-0.372,0-0.747-0.026-1.119-0.074c-0.026-0.003-0.052-0.011-0.079-0.015c-0.344-0.048-0.688-0.114-1.027-0.204 c-0.064-0.017-0.126-0.044-0.189-0.062c-0.296-0.085-0.589-0.179-0.88-0.297c-0.092-0.037-0.179-0.087-0.27-0.128 c-0.232-0.104-0.466-0.203-0.692-0.329l-4.283-2.397L65.192,367.304l182.076,101.154v-8.845 C247.269,454.787,251.179,450.882,256.001,450.882z"></path> <path style="fill:#A0C869;" d="M260.264,258.32c-0.226,0.126-0.46,0.225-0.692,0.329c-0.091,0.04-0.177,0.091-0.27,0.128 c-0.289,0.118-0.584,0.212-0.88,0.297c-0.063,0.019-0.126,0.045-0.189,0.062c-0.341,0.091-0.683,0.156-1.027,0.204 c-0.026,0.003-0.052,0.011-0.079,0.015c-0.373,0.048-0.747,0.074-1.119,0.074c-0.003,0-0.005,0-0.009,0v16.831 c4.822,0,8.731,3.905,8.731,8.731v43.656c0,4.826-3.909,8.731-8.731,8.731v26.193c4.822,0,8.731,3.905,8.731,8.731v43.656 c0,4.826-3.909,8.731-8.731,8.731v26.193c4.822,0,8.731,3.905,8.731,8.731v8.845l182.076-101.154L264.546,255.923L260.264,258.32z"></path> <path style="fill:#FFB969;" d="M289.834,221.758c4.216-2.344,9.528-0.844,11.882,3.359c0.027,0.048,0.046,0.097,0.072,0.146 l22.923-12.734c-0.041-0.069-0.092-0.13-0.131-0.201c-2.357-4.212-0.852-9.525,3.355-11.886l38.096-21.316 c4.207-2.344,9.525-0.836,11.882,3.359c0.07,0.126,0.126,0.254,0.189,0.382l22.947-12.749c-0.091-0.142-0.193-0.274-0.276-0.423 c-2.357-4.212-0.852-9.525,3.355-11.886l33.023-18.478l-181.15-100.64v201.997L289.834,221.758z"></path> <g> <path style="fill:none;" d="M241.155,26.961l14.845-8.245l14.845,8.245c1.342,0.751,2.797,1.1,4.229,1.1 c3.07,0,6.045-1.62,7.64-4.493c2.344-4.212,0.823-9.532-3.393-11.869L260.24,1.1c-2.635-1.467-5.841-1.467-8.476,0l-19.082,10.599 c-4.216,2.337-5.739,7.657-3.393,11.869C231.623,27.788,236.939,29.322,241.155,26.961z"></path> <path style="fill:none;" d="M165.393,67.803c1.433,0,2.89-0.349,4.234-1.1l35.768-19.875c4.212-2.344,5.734-7.657,3.389-11.869 c-2.337-4.212-7.648-5.747-11.873-3.393l-35.768,19.875c-4.212,2.344-5.734,7.657-3.389,11.869 C159.348,66.183,162.323,67.803,165.393,67.803z"></path> <path style="fill:none;" d="M93.86,107.545c1.433,0,2.89-0.349,4.234-1.1l35.768-19.875c4.212-2.344,5.734-7.657,3.389-11.869 c-2.341-4.212-7.648-5.747-11.873-3.393L89.609,91.183c-4.212,2.344-5.734,7.657-3.389,11.869 C87.815,105.925,90.791,107.545,93.86,107.545z"></path> <path style="fill:none;" d="M39,159.838c4.822,0,8.731-3.905,8.731-8.731V134.42l14.589-8.109 c4.212-2.337,5.734-7.657,3.389-11.869c-2.337-4.212-7.657-5.747-11.873-3.393l-19.078,10.599 c-2.771,1.535-4.489,4.459-4.489,7.631v21.828C30.269,155.933,34.178,159.838,39,159.838z"></path> <path style="fill:none;" d="M39,327.666c4.822,0,8.731-3.905,8.731-8.731v-41.959c0-4.826-3.909-8.731-8.731-8.731 s-8.731,3.905-8.731,8.731v41.959C30.269,323.76,34.178,327.666,39,327.666z"></path> <path style="fill:none;" d="M39,243.756c4.822,0,8.731-3.905,8.731-8.731v-41.959c0-4.826-3.909-8.731-8.731-8.731 s-8.731,3.905-8.731,8.731v41.959C30.269,239.851,34.178,243.756,39,243.756z"></path> <path style="fill:none;" d="M62.321,385.689l-14.589-8.109v-16.695c0-4.826-3.909-8.731-8.731-8.731s-8.731,3.905-8.731,8.731 v21.828c0,3.172,1.718,6.088,4.489,7.631l19.078,10.607c1.342,0.751,2.797,1.1,4.234,1.1c3.07,0,6.045-1.62,7.64-4.485 C68.054,393.345,66.537,388.033,62.321,385.689z"></path> <path style="fill:none;" d="M205.39,465.173l-35.768-19.875c-4.22-2.353-9.528-0.819-11.873,3.393 c-2.345,4.212-0.823,9.525,3.389,11.869l35.768,19.875c1.342,0.751,2.801,1.1,4.234,1.1c3.07,0,6.045-1.62,7.64-4.493 C211.125,472.829,209.603,467.517,205.39,465.173z"></path> <path style="fill:none;" d="M133.857,425.431l-35.768-19.875c-4.22-2.353-9.537-0.819-11.873,3.393 c-2.344,4.212-0.823,9.525,3.389,11.869l35.768,19.875c1.342,0.751,2.801,1.1,4.234,1.1c3.07,0,6.045-1.62,7.64-4.493 C139.591,433.087,138.07,427.775,133.857,425.431z"></path> <path style="fill:none;" d="M270.845,485.039l-14.845,8.245l-14.845-8.245c-4.216-2.353-9.532-0.819-11.869,3.393 c-2.344,4.212-0.823,9.532,3.393,11.869L251.76,510.9c1.317,0.733,2.775,1.1,4.238,1.1s2.921-0.367,4.238-1.1l19.082-10.599 c4.216-2.337,5.739-7.657,3.393-11.869S275.061,482.686,270.845,485.039z"></path> <path style="fill:none;" d="M413.907,405.555l-35.765,19.875c-4.216,2.344-5.734,7.657-3.389,11.869 c1.595,2.874,4.571,4.493,7.64,4.493c1.433,0,2.89-0.349,4.234-1.1l35.765-19.875c4.216-2.344,5.734-7.657,3.389-11.869 C423.439,404.737,418.131,403.202,413.907,405.555z"></path> <path style="fill:none;" d="M342.373,445.297l-35.768,19.875c-4.212,2.344-5.734,7.657-3.389,11.869 c1.595,2.874,4.571,4.493,7.64,4.493c1.433,0,2.89-0.349,4.234-1.1l35.768-19.875c4.212-2.344,5.734-7.657,3.389-11.869 C351.91,444.479,346.594,442.944,342.373,445.297z"></path> <path style="fill:none;" d="M473,352.153c-4.822,0-8.731,3.905-8.731,8.731v16.695l-14.589,8.109 c-4.216,2.344-5.734,7.657-3.389,11.878c1.595,2.865,4.571,4.485,7.64,4.485c1.436,0,2.89-0.349,4.234-1.1l19.078-10.607 c2.771-1.543,4.489-4.459,4.489-7.631v-21.828C481.731,356.058,477.822,352.153,473,352.153z"></path> <path style="fill:none;" d="M473,184.334c-4.822,0-8.731,3.905-8.731,8.731v41.959c0,4.826,3.909,8.731,8.731,8.731 s8.731-3.905,8.731-8.731v-41.959C481.731,188.24,477.822,184.334,473,184.334z"></path> <path style="fill:none;" d="M473,268.244c-4.822,0-8.731,3.905-8.731,8.731v41.959c0,4.826,3.909,8.731,8.731,8.731 s8.731-3.905,8.731-8.731v-41.959C481.731,272.149,477.822,268.244,473,268.244z"></path> <path style="fill:none;" d="M477.241,121.648l-19.078-10.599c-4.216-2.353-9.532-0.819-11.873,3.393 c-2.344,4.212-0.823,9.532,3.389,11.869l14.589,8.109v16.686c0,4.826,3.909,8.731,8.731,8.731s8.731-3.905,8.731-8.731v-21.828 C481.731,126.107,480.012,123.182,477.241,121.648z"></path> <path style="fill:none;" d="M306.61,46.827l35.768,19.875c1.342,0.751,2.801,1.1,4.234,1.1c3.07,0,6.045-1.62,7.64-4.493 c2.344-4.212,0.823-9.525-3.389-11.869l-35.768-19.875c-4.22-2.353-9.537-0.819-11.873,3.393 C300.875,39.171,302.397,44.483,306.61,46.827z"></path> <path style="fill:none;" d="M378.143,86.569l35.768,19.875c1.342,0.751,2.801,1.1,4.234,1.1c3.07,0,6.045-1.62,7.64-4.493 c2.344-4.212,0.823-9.525-3.389-11.869l-35.769-19.875c-4.216-2.353-9.537-0.819-11.873,3.393 C372.409,78.913,373.93,84.225,378.143,86.569z"></path> </g> <g> <path style="fill:#FFFFFF;" d="M57.895,139.852c-2.357,4.212-0.852,9.525,3.355,11.886l3.942,2.206l34.154,19.11 c1.347,0.751,2.814,1.109,4.254,1.109c2.901,0,5.704-1.461,7.351-4.045c0.091-0.142,0.193-0.274,0.276-0.423 c2.357-4.212,0.852-9.525-3.355-11.886l-33.023-18.478l-5.073-2.839C65.56,134.148,60.239,135.648,57.895,139.852z"></path> <path style="fill:#FFFFFF;" d="M137.444,194.371l38.096,21.316c1.347,0.751,2.814,1.109,4.254,1.109 c2.985,0,5.872-1.542,7.496-4.267c0.041-0.069,0.092-0.13,0.131-0.201c2.357-4.212,0.852-9.525-3.355-11.886l-38.096-21.316 c-4.207-2.353-9.532-0.844-11.882,3.359c-0.07,0.126-0.126,0.254-0.189,0.382C131.834,187.014,133.361,192.079,137.444,194.371z"></path> <path style="fill:#FFFFFF;" d="M213.64,237.003l33.814,18.919l4.283,2.397c0.226,0.126,0.459,0.225,0.692,0.329 c0.091,0.04,0.177,0.091,0.27,0.128c0.289,0.118,0.584,0.212,0.88,0.297c0.063,0.019,0.126,0.045,0.189,0.062 c0.341,0.091,0.683,0.156,1.027,0.204c0.026,0.003,0.052,0.011,0.079,0.015c0.373,0.048,0.747,0.074,1.119,0.074 c0.003,0,0.005,0,0.009,0s0.005,0,0.009,0c0.372,0,0.747-0.026,1.119-0.074c0.026-0.003,0.052-0.011,0.079-0.015 c0.344-0.048,0.688-0.114,1.027-0.204c0.064-0.017,0.126-0.044,0.189-0.062c0.296-0.085,0.589-0.179,0.88-0.297 c0.092-0.037,0.179-0.087,0.27-0.128c0.232-0.104,0.466-0.203,0.692-0.329l4.283-2.397l33.814-18.919 c4.16-2.334,5.672-7.551,3.427-11.74c-0.026-0.048-0.046-0.098-0.072-0.146c-2.353-4.204-7.665-5.705-11.882-3.359l-33.833,18.931 l-33.833-18.931c-4.22-2.353-9.537-0.844-11.882,3.359c-0.027,0.048-0.046,0.097-0.072,0.146 C207.968,229.451,209.48,234.668,213.64,237.003z"></path> <path style="fill:#FFFFFF;" d="M332.206,216.796c1.441,0,2.907-0.358,4.254-1.109l38.096-21.316 c4.083-2.292,5.61-7.357,3.544-11.504c-0.063-0.127-0.119-0.256-0.189-0.382c-2.357-4.195-7.674-5.705-11.882-3.359l-38.096,21.316 c-4.207,2.362-5.712,7.674-3.355,11.886c0.039,0.071,0.09,0.131,0.131,0.201C326.334,215.253,329.22,216.796,332.206,216.796z"></path> <path style="fill:#FFFFFF;" d="M400.772,169.694c0.084,0.15,0.186,0.281,0.276,0.423c1.647,2.583,4.45,4.045,7.351,4.045 c1.441,0,2.907-0.358,4.254-1.109l34.154-19.11l3.942-2.206c4.207-2.362,5.712-7.674,3.355-11.886 c-2.353-4.204-7.669-5.696-11.882-3.359l-5.073,2.839l-33.023,18.478C399.919,160.171,398.414,165.483,400.772,169.694z"></path> <path style="fill:#FFFFFF;" d="M247.269,284.99v43.656c0,4.826,3.909,8.731,8.731,8.731c4.822,0,8.731-3.905,8.731-8.731V284.99 c0-4.826-3.909-8.731-8.731-8.731C251.179,276.259,247.269,280.164,247.269,284.99z"></path> <path style="fill:#FFFFFF;" d="M247.269,372.302v43.656c0,4.826,3.909,8.731,8.731,8.731c4.822,0,8.731-3.905,8.731-8.731v-43.656 c0-4.826-3.909-8.731-8.731-8.731C251.179,363.57,247.269,367.475,247.269,372.302z"></path> <path style="fill:#FFFFFF;" d="M256.001,450.882c-4.822,0-8.731,3.905-8.731,8.731v8.845v2.068c0,4.826,3.909,8.731,8.731,8.731 c4.822,0,8.731-3.905,8.731-8.731v-2.068v-8.845C264.732,454.787,260.821,450.882,256.001,450.882z"></path> </g> </g></svg>