<?xml version="1.0" encoding="UTF-8"?>
<!-- Created with Inkscape (http://www.inkscape.org/) -->
<svg id="svg7324" width="16" height="16" version="1.1" xmlns="http://www.w3.org/2000/svg" xmlns:cc="http://creativecommons.org/ns#" xmlns:dc="http://purl.org/dc/elements/1.1/" xmlns:rdf="http://www.w3.org/1999/02/22-rdf-syntax-ns#" xmlns:xlink="http://www.w3.org/1999/xlink">
 <metadata id="metadata49">
  <rdf:RDF>
   <cc:Work rdf:about="">
    <dc:format>image/svg+xml</dc:format>
    <dc:type rdf:resource="http://purl.org/dc/dcmitype/StillImage"/>
   </cc:Work>
  </rdf:RDF>
 </metadata>
 <defs id="defs7326">
  <linearGradient id="linearGradient2915" x1="12.938" x2="15.25" y1="8.4375" y2="19.812" gradientTransform="matrix(.40476 0 0 .46667 .78571 -.56638)" gradientUnits="userSpaceOnUse">
   <stop id="stop6594" style="stop-color:#fff;stop-opacity:.27451" offset="0"/>
   <stop id="stop6596" style="stop-color:#fff;stop-opacity:0" offset="1"/>
  </linearGradient>
  <linearGradient id="linearGradient2931" x1="20.147" x2="20.104" y1="-.0004971" y2="31.983" gradientTransform="matrix(.42622 0 0 .45209 .27049 -2.733)" gradientUnits="userSpaceOnUse">
   <stop id="stop6546" style="stop-color:#f0f0f0" offset="0"/>
   <stop id="stop6548" style="stop-color:#d2d2d2" offset="1"/>
  </linearGradient>
  <linearGradient id="linearGradient3028" x1="321.58" x2="321.58" y1="86.05" y2="96.245" gradientTransform="matrix(.41035 0 0 .51289 -122.96 -34.968)" gradientUnits="userSpaceOnUse">
   <stop id="stop3271" style="stop-color:#787878" offset="0"/>
   <stop id="stop3273" style="stop-color:#bebebe" offset=".34447"/>
   <stop id="stop3275" style="stop-color:#c8c8c8" offset=".37315"/>
   <stop id="stop3277" style="stop-color:#e6e6e6" offset=".48991"/>
   <stop id="stop3279" style="stop-color:#8c8c8c" offset="1"/>
  </linearGradient>
  <linearGradient id="linearGradient3030" x1="22.452" x2="22.452" y1="30.05" y2="40.186" gradientTransform="matrix(.41182 0 0 .51282 -1.5198 -6.2431)" gradientUnits="userSpaceOnUse">
   <stop id="stop3259" style="stop-color:#282828" offset="0"/>
   <stop id="stop3261" style="stop-color:#787878" offset=".34847"/>
   <stop id="stop3263" style="stop-color:#828282" offset=".36564"/>
   <stop id="stop3265" style="stop-color:#aaa" offset=".49353"/>
   <stop id="stop3267" style="stop-color:#464646" offset="1"/>
  </linearGradient>
  <linearGradient id="linearGradient5719" x1="316.86" x2="319.39" y1="85.62" y2="93.916" gradientTransform="matrix(.40476 0 0 .5 -121.02 -31.698)" gradientUnits="userSpaceOnUse">
   <stop id="stop4576" style="stop-color:#282828" offset="0"/>
   <stop id="stop4578" style="stop-color:#5a5c58" offset="1"/>
  </linearGradient>
  <linearGradient id="linearGradient2893" x1="145.44" x2="145.44" y1="372.67" y2="416.83" gradientTransform="matrix(.091559 0 0 .079246 -6.3161 -17.282)" gradientUnits="userSpaceOnUse">
   <stop id="stop7257" style="stop-color:#fff" offset="0"/>
   <stop id="stop7259" style="stop-color:#e6e6e6" offset="1"/>
  </linearGradient>
  <radialGradient id="radialGradient2736" cx="26.617" cy="-2.0645" r="23" gradientTransform="matrix(0 -.17267 .35273 0 11.221 10.904)" gradientUnits="userSpaceOnUse">
   <stop id="stop2749" style="stop-color:#d78ec1" offset="0"/>
   <stop id="stop2751" style="stop-color:#c564be" offset=".26238"/>
   <stop id="stop2753" style="stop-color:#9d3ea4" offset=".66094"/>
   <stop id="stop2755" style="stop-color:#5e2c73" offset="1"/>
  </radialGradient>
  <linearGradient id="linearGradient2738" x1="2.3596" x2="35.407" y1="20.335" y2="20.335" gradientTransform="matrix(.3527 0 0 .18979 1.5456 1.7515)" gradientUnits="userSpaceOnUse">
   <stop id="stop2759" style="stop-color:#650d5c" offset="0"/>
   <stop id="stop2761" style="stop-color:#5e2c59" offset="1"/>
  </linearGradient>
 </defs>
 <path id="path4675" d="m6.4364 7.3461v3.5903c-0.00907 0.92422-0.6521 1.5387-0.6521 1.5387-0.30832 0.04535-0.26136 0.22875-0.26136 0.5129 0 0.28414 0.00729 0.51289 0.26136 0.51289l4.6187 1.37e-4c0.25408 0 0.162-0.22886 0.162-0.513 0-0.28414 0.14632-0.46765-0.162-0.513 0 0-0.89393-0.61439-0.903-1.5386v-3.5903h-3.0636z" style="enable-background:new;fill:url(#linearGradient3028);stroke-dashoffset:.5;stroke-linecap:round;stroke-linejoin:round;stroke-width:.99827;stroke:url(#linearGradient3030)"/>
 <rect id="rect2722" x=".53172" y=".52202" width="14.967" height="10.011" rx=".5" ry=".5" style="fill:url(#linearGradient2931);stroke-dashoffset:.5;stroke-linecap:round;stroke-linejoin:round;stroke:#969696"/>
 <rect id="rect2716" x="2.4854" y="2.5303" width="11.078" height="5.9689" style="color:#000000;fill-rule:evenodd;fill:url(#radialGradient2736);stroke-linecap:round;stroke-linejoin:round;stroke-width:1.0021;stroke:url(#linearGradient2738)"/>
 <path id="rect6588" d="m2 2h12v2l-12 3-1e-7 -5z" style="fill:url(#linearGradient2915)"/>
 <path id="path3698" d="m2.156 12.499c-0.12896 0.01142-0.24151 0.07719-0.30329 0.17583l-1.3076 2.0901c-0.030695 0.05012-0.046834 0.10727-0.04578 0.16344-1.148e-4 -0.0061-3.361e-4 -0.0044 0 5e-3v0.23279 0.02476c-3.716e-4 0.03449 0.011624 0.06824 0.034335 0.09658 0.00698 0.01742 0.00671 0.03026 0.020029 0.04953 0.069558 0.10066 0.19664 0.16279 0.33476 0.16344h14.22c0.13843 2.73e-4 0.26665-0.06219 0.33762-0.16592 0.03023-0.04417 0.03976-0.08522 0.04578-0.11639 0.01039-0.05378 0.0086-0.09163 0.0086-0.09163 2.8e-5 -0.0016 2.8e-5 -0.0033 0-5e-3v-0.16592c0-0.04728-5.41e-4 -0.12011-0.04864-0.19564l-1.3591-2.0901c-9.53e-4 -7e-6 -0.0019-7e-6 -0.0029 0-0.07045-0.10671-0.20135-0.17208-0.34334-0.17088h-11.542c-0.00305-1.31e-4 -0.00555 7.3e-5 -0.00858 0-0.010124-2.38e-4 -0.018448-4.43e-4 -0.028612 0-0.00381-9.7e-5 -0.00763-9.7e-5 -0.011445 0l1.9e-5 5e-6z" style="enable-background:new;fill:url(#linearGradient2893);stroke-dashoffset:.3612;stroke-linecap:square;stroke-width:.99829;stroke:#a0a0a0"/>
 <path id="path3704" d="m3.0247 11.802-1.0247 2.198h12l-1.1-2.198h-9.8753z" style="enable-background:new;fill-rule:evenodd;fill:url(#linearGradient5719)"/>
</svg>
