<?xml version="1.0" encoding="UTF-8"?>
<!-- Created with Inkscape (http://www.inkscape.org/) -->
<svg id="svg3786" width="16" height="16" version="1.0" xmlns="http://www.w3.org/2000/svg" xmlns:xlink="http://www.w3.org/1999/xlink">
 <defs id="defs3788">
  <linearGradient id="linearGradient3217" x1="46.427" x2="46.427" y1="101.88" y2="85.788" gradientTransform="matrix(.12584 0 0 .1986 .13145 -5.1684)" gradientUnits="userSpaceOnUse">
   <stop id="stop2223" style="stop-color:#aaa" offset="0"/>
   <stop id="stop2219" style="stop-color:#646464" offset="1"/>
  </linearGradient>
  <linearGradient id="linearGradient3214" x1="7.8514" x2="7.8514" y1="19.968" y2="7.0348" gradientTransform="matrix(.64516 0 0 .97976 .25806 -6.7257)" gradientUnits="userSpaceOnUse">
   <stop id="stop3486" style="stop-color:#aaa" offset="0"/>
   <stop id="stop3488" style="stop-color:#c8c8c8" offset="1"/>
  </linearGradient>
  <linearGradient id="linearGradient3212" x1="-35.539" x2="-35.539" y1="-144.21" y2="-108.32" gradientTransform="matrix(.23599 0 0 .35556 18.232 51.44)" gradientUnits="userSpaceOnUse">
   <stop id="stop7064" style="stop-color:#f0f0f1" offset="0"/>
   <stop id="stop7060" style="stop-color:#ddddde" offset="1"/>
  </linearGradient>
 </defs>
 <g id="g4069">
  <path id="rect2992" d="m0.41963 12.522h15.158c0.04071 0.12546 0.0066 0.18174 0.01782 0.33377-0.30815 2.701-0.0731 2.1444-0.78734 2.7254-0.21855 0.03855-8.8122 0-13.647 0-0.58008-0.58106-0.45286 0.05255-0.75972-3.1792l0.017819 0.12004z" style="fill:url(#linearGradient3217);stroke-width:.80362;stroke:#59595b"/>
  <path id="rect2990" d="m1.4897 1.4658-0.97496 11.023c-0.009749 0-0.014749 0.002903-0.014749 0.011114h15c0-0.0082-5e-3 -0.01111-0.01475-0.01111l-1.0054-11.241s-0.18775-0.7434-0.90964-0.7434c-0.68815 0-10.535-0.004447-11.26-0.004447-0.75868 0-0.82051 0.96576-0.82051 0.96576z" style="fill:url(#linearGradient3212);stroke-linecap:round;stroke-linejoin:round;stroke:url(#linearGradient3214)"/>
  <path id="path2215" d="m1.4763 12.5h13.047" style="fill:none;opacity:.8;stroke-linecap:round;stroke-linejoin:round;stroke:#fff"/>
  <rect id="rect4015" x="2" y="13" width="12" height="1.5" rx=".5" ry=".75" style="fill:#fff;opacity:.5"/>
  <rect id="rect6287-2" x="2" y="13" width="12" height="1" rx=".5" ry=".5" style="fill:#282828"/>
 </g>
 <path id="path7451" transform="matrix(.94884 0 0 .93008 .39796 1.4307)" d="m7.9375 1.6875c-0.00335 0.00316 0.00326 0.027991 0 0.03125-0.00326 0.00326-0.028088-0.00335-0.03125 0a0.094395 0.094395 0 0 1-0.03125 0.03125c-0.4804 0.22524-1.1403 0.48737-1.625 0.875-0.00204 0.0019 2e-3 0.029318 0 0.03125-0.00197 0.00197-0.029315-2e-3 -0.03125 0-0.00175 0.00217 0.00171 0.029054 0 0.03125-0.00163 0.00226-0.029658-0.00228-0.03125 0-0.00143 0.00239 0.00138 0.028834 0 0.03125-0.00112 0.00255 0.00107 0.028681 0 0.03125-0.00107 0.00257-0.030222-0.00259-0.03125 0-8.42e-4 0.00265 7.948e-4 0.028582 0 0.03125-5.067e-4 0.00274 4.581e-4 0.028504 0 0.03125-2.13e-4 0.00278 1.637e-4 0.028471 0 0.03125 8.32e-5 0.00278-1.326e-4 0.028469 0 0.03125 4.273e-4 0.00275-4.761e-4 0.028507 0 0.03125 7.172e-4 0.00269-7.648e-4 0.028573 0 0.03125 9.99e-4 0.0026 0.030205-0.00258 0.03125 0 0.00105 0.00258-0.00109 0.028688 0 0.03125 0.00131 0.00245-0.00136 0.028819 0 0.03125 0.00157 0.0023 0.029643-0.00227 0.03125 0 0.00165 0.00224-0.00169 0.029035 0 0.03125 0.00195 0.00199 0.029267 0.029296 0.03125 0.03125 0.00221 0.00169 0.02901-0.00165 0.03125 0 0.00227 0.00161-0.0023 0.029677 0 0.03125 0.00243 0.00136 0.028799-0.00132 0.03125 0 0.00258 0.00105 0.028654 0.030244 0.03125 0.03125 0.00267 7.724e-4 0.028562-7.248e-4 0.03125 0a0.094395 0.094395 0 0 1 0.03125 0c0.23024 0.043463 0.39212 0.026708 0.59375 0.03125a0.094395 0.094395 0 0 1 0.03125 0 0.094395 0.094395 0 0 1 0.03125 0.03125 0.094395 0.094395 0 0 1 0.03125 0.03125 0.094395 0.094395 0 0 1 0 0.03125c0.011266 0.99068 0.041181 1.8786 0 2.8438a0.094395 0.094395 0 0 1 0 0.03125 0.094395 0.094395 0 0 1-0.03125 0.03125 0.094395 0.094395 0 0 1-0.03125 0.03125 0.094395 0.094395 0 0 1-0.03125 0c-0.18234-0.00173-0.33853-0.00571-0.5 0-0.38628 0-0.6759-0.034907-0.90625-0.15625-0.20378-0.10734-0.37069-0.32398-0.5-0.5625a0.094395 0.094395 0 0 1 0-0.03125 0.094395 0.094395 0 0 1 0-0.03125 0.094395 0.094395 0 0 1 0.03125-0.03125 0.094395 0.094395 0 0 1 0.03125-0.03125c0.23673-0.06886 0.41525-0.21456 0.46875-0.4375 0.032186-0.13413 0.0081839-0.31292-0.09375-0.4375-0.10379-0.12684-0.21323-0.19201-0.375-0.21875-0.00527 6.667e-4 -0.033069 0.00798-0.0625 0-0.64698-0.17547-1.3662-0.18723-2.0312 0.09375-0.00913 0.00386-0.022147-0.00397-0.03125 0-0.00307 0.00345 0.00296 0.02771 0 0.03125s-0.028391-0.00363-0.03125 0c-0.15974 0.12581-0.29124 0.32869-0.25 0.53125 0.044381 0.21797 0.18132 0.29732 0.3125 0.375 0.18698 0.11072 0.3365 0.15141 0.5 0.1875a0.094395 0.094395 0 0 1 0.03125 0.03125 0.094395 0.094395 0 0 1 0.03125 0c0.18799 0.32457 0.38605 0.68529 0.875 1.0938 0.00326 0.00163 0.027951-0.00155 0.03125 0a0.094395 0.094395 0 0 1 0.03125 0c0.41666 0.25306 0.62617 0.44322 1 0.53125 0.28743 0.06768 0.81118 0.057686 1.4375 0.0625a0.094395 0.094395 0 0 1 0.03125 0 0.094395 0.094395 0 0 1 0.03125 0.03125 0.094395 0.094395 0 0 1 0.03125 0.03125 0.094395 0.094395 0 0 1 0 0.03125c7.935e-4 0.43039-0.00387 0.86887 0 1.3125a0.094395 0.094395 0 0 1 0 0.03125 0.094395 0.094395 0 0 1-0.03125 0.03125 0.094395 0.094395 0 0 1-0.03125 0.03125c-0.28556 0.11421-0.53313 0.19864-0.78125 0.4375-0.00249 0.00224 0.00244 0.028961 0 0.03125-0.00239 0.00234-0.028907-0.00239-0.03125 0-0.00213 0.00258 0.00207 0.028623 0 0.03125-0.00196 0.00271-0.029348-0.00275-0.03125 0-0.00172 0.00287 0.00166 0.028344 0 0.03125-0.00141 0.00304 0.00134 0.028184 0 0.03125-0.00128 0.00309-0.03004-0.00312-0.03125 0-0.00101 0.00319 9.395e-4 0.028037 0 0.03125-6.622e-4 0.00328 5.921e-4 0.027955 0 0.03125-0.031261 0.18396-0.00224 0.36775 0.09375 0.5 0.09805 0.1351 0.23952 0.19458 0.375 0.25 0.25089 0.10263 0.4994 0.15727 0.625 0.1875 0.00325 2.03e-4 0.027992-1.36e-4 0.03125 0 0.00326-1.36e-4 0.027995 2.03e-4 0.03125 0 0.67695 0.06808 1.6255 0.09449 2.3438-0.34375a0.094395 0.094395 0 0 1 0.03125 0c0.00357-0.00201 0.02773 0.00211 0.03125 0 0.00341-0.00229-0.00334-0.028876 0-0.03125 0.00328-0.00246 0.028034 0.00255 0.03125 0 0.00293-0.00287-0.00286-0.028307 0-0.03125 0.00286-0.00294 0.028471 0.00302 0.03125 0 0.1183-0.17423 0.10736-0.45918 0.03125-0.625-0.083716-0.18238-0.19848-0.2468-0.34375-0.34375-0.16716-0.11156-0.32342-0.16262-0.5-0.21875a0.094395 0.094395 0 0 1-0.03125-0.03125 0.094395 0.094395 0 0 1-0.03125-0.03125 0.094395 0.094395 0 0 1 0-0.03125v-2.2188a0.094395 0.094395 0 0 1 0-0.03125 0.094395 0.094395 0 0 1 0.03125-0.03125 0.094395 0.094395 0 0 1 0.03125-0.03125 0.094395 0.094395 0 0 1 0.03125 0c0.98534-0.070085 1.8603-0.2112 2.8125-0.84375v0.03125c0.33224-0.23503 0.54304-0.62647 0.6875-1.0312a0.094395 0.094395 0 0 1 0.03125-0.03125 0.094395 0.094395 0 0 1 0.03125-0.03125 0.094395 0.094395 0 0 1 0.03125 0l0.4375-0.0625h0.03125c0.0033-9.584e-4 0.02795 0.00103 0.03125 0 0.0032-0.00125-0.0032-0.029932 0-0.03125 0.0032-0.00132 0.02808 0.00139 0.03125 0 3e-3 -0.00173 0.02829 0.00179 0.03125 0 0.0028-0.00199-0.0028-0.029202 0-0.03125 0.0027-0.00211 0.02855 0.00217 0.03125 0 0.0025-0.0024-0.0024-0.028797 0-0.03125 0.0024-0.00251 0.02892 0.00256 0.03125 0 0.0021-0.00275-2e-3 -0.028451 0-0.03125 0.0019-0.00289 0.02941 0.00293 0.03125 0 0.0017-0.00301-0.0016-0.028207 0-0.03125 0.0013-0.00321-0.0012-0.028016 0-0.03125 0.0012-0.00326 0.03016 0.00328 0.03125 0 9.42e-4 -0.00333-8.68e-4 -0.027901 0-0.03125 5.7e-4 -0.00341-4.95e-4 -0.027825 0-0.03125 1.91e-4 -0.00345-1.15e-4 -0.027792 0-0.03125v-0.5625c-2.01e-4 -0.00383 2.94e-4 -0.027428 0-0.03125-5.73e-4 -0.00379 6.66e-4 -0.027475 0-0.03125-1e-3 -0.00369 0.0011-0.027584 0-0.03125-0.0012-0.00364-0.02995 0.00361-0.03125 0-0.0015-0.00354 0.0016-0.027748 0-0.03125-0.0019-0.00333 2e-3 -0.027964 0-0.03125-0.0021-0.00324-0.02912 0.00319-0.03125 0-0.0023-0.00308 0.0024-0.028229 0-0.03125-0.0026-0.00284-0.02861 0.00278-0.03125 0-0.0028-0.00264 0.0028-0.028675 0-0.03125-3e-3 -0.00236-0.02817 0.00229-0.03125 0-0.0032-0.00213 0.0032-0.029196 0-0.03125-0.0033-0.00197-0.02792 0.00189-0.03125 0-0.0035-0.00156-0.02771 0.00147-0.03125 0-0.0036-0.0013 0.0036-0.03004 0-0.03125-0.0037-0.00112-0.02756 0.00103-0.03125 0-0.0038-6.659e-4 -0.02746 5.734e-4 -0.03125 0-0.0038-2.943e-4 -0.02742 2.008e-4 -0.03125 0h-2.0938c-0.0038 2.008e-4 -0.02743-2.943e-4 -0.03125 0-0.0038 5.734e-4 -0.02748-6.659e-4 -0.03125 0-0.0037 0.00103-0.02758-0.00112-0.03125 0-0.0036 0.00121 0.0036 0.029951 0 0.03125-0.0035 0.00147-0.02775-0.00156-0.03125 0-0.0033 0.00189-0.02796-0.00197-0.03125 0-0.0032 0.00205 0.0032 0.029117 0 0.03125-0.0031 0.00229-0.02823-0.00236-0.03125 0-0.0028 0.00258 0.0028 0.028606 0 0.03125-0.0026 0.00278-0.02867-0.00284-0.03125 0-0.0024 0.00302 0.0023 0.028172 0 0.03125-0.0021 0.00319-0.0292-0.00324-0.03125 0-2e-3 0.00329 0.0019 0.027917 0 0.03125-0.0016 0.0035 0.0015 0.027711 0 0.03125-0.0013 0.00361-0.03004-0.00364-0.03125 0-0.0011 0.00367 1e-3 0.027558 0 0.03125-6.66e-4 0.00378 5.73e-4 0.027459 0 0.03125-2.94e-4 0.00382 2.01e-4 0.027422 0 0.03125v0.5625c1.68e-4 0.00364-2.52e-4 0.02762 0 0.03125 5.87e-4 0.00359-6.71e-4 0.027673 0 0.03125 9.99e-4 0.0035-0.0011 0.027775 0 0.03125 0.0012 0.00345 0.03001-0.00342 0.03125 0 0.0014 0.00336-0.0015 0.027923 0 0.03125 0.0018 0.00318-0.0018 0.028116 0 0.03125 2e-3 0.00304 0.02919-3e-3 0.03125 0 0.0022 0.0029-0.0023 0.028403 0 0.03125 0.0025 0.00268 0.02873-0.00262 0.03125 0 0.0026 0.00257-0.0026 0.028745 0 0.03125 0.0029 0.00225 0.02834-0.00218 0.03125 0 3e-3 0.00205-0.0031 0.029275 0 0.03125 0.0031 0.0019 0.02811-0.00183 0.03125 0 0.0033 0.00146 0.02788-0.00138 0.03125 0 0.0034 0.0013-0.0034 0.03003 0 0.03125 0.0035 0.00106 0.02774-9.785e-4 0.03125 0 0.0036 6.496e-4 0.02765-5.664e-4 0.03125 0h0.0625a0.094395 0.094395 0 0 1 0.03125 0 0.094395 0.094395 0 0 1 0.03125 0.03125 0.094395 0.094395 0 0 1 0.03125 0.03125 0.094395 0.094395 0 0 1 0 0.03125 0.094395 0.094395 0 0 1 0 0.03125 0.094395 0.094395 0 0 1 0 0.03125c-0.13892 0.24123-0.35803 0.44522-0.59375 0.5625-0.01192 0.00326-0.01935 4.364e-4 -0.03125 0-0.01001 0.00272-0.03586-0.00106-0.03125 0-0.0065 0.00459 0.01004 0.026871 0 0.03125-0.65741 0.17757-0.98917 0.216-1.375 0.21875a0.094395 0.094395 0 0 1-0.03125 0 0.094395 0.094395 0 0 1-0.03125-0.03125 0.094395 0.094395 0 0 1-0.03125-0.03125 0.094395 0.094395 0 0 1 0-0.03125v-1.9062a0.094395 0.094395 0 0 1 0-0.03125 0.094395 0.094395 0 0 1 0.03125-0.03125 0.094395 0.094395 0 0 1 0.03125-0.03125 0.094395 0.094395 0 0 1 0.03125 0c0.21178-0.0034418 0.38089 0.017404 0.59375-0.03125a0.094395 0.094395 0 0 1 0.03125 0c0.00309-7.704e-4 0.028179 8.328e-4 0.03125 0 0.00299-0.00108 0.028279 0.00114 0.03125 0 0.00297-0.00114-0.00295-0.030051 0-0.03125 0.00284-0.00143 0.028439 0.00149 0.03125 0 0.00265-0.00177-0.00261-0.029428 0-0.03125 0.00261-0.00182 0.028678 0.00187 0.03125 0 0.00233-0.00217 0.02897 0.00222 0.03125 0s-0.00224-0.028985 0-0.03125c0.00194-0.00252 0.029358-0.028691 0.03125-0.03125 0.00157-0.00277-0.00151-0.028449 0-0.03125 0.00134-0.00289 0.029971 0.00291 0.03125 0 0.00122-0.00294-0.00116-0.028287 0-0.03125 8.539e-4 -0.00307-7.916e-4 -0.028168 0-0.03125 5.392e-4 -0.00314-4.755e-4 -0.028103 0-0.03125 1.545e-4 -0.00318-9e-5 -0.028069 0-0.03125-1.68e-4 -0.00318 2.324e-4 -0.028076 0-0.03125-5.525e-4 -0.00313 6.16e-4 -0.028128 0-0.03125-8.669e-4 -0.00306 9.289e-4 -0.028206 0-0.03125-0.00123-0.00293 0.00129-0.028342 0-0.03125-0.00129-0.00291-0.0299 0.00288-0.03125 0-0.00158-0.00276 0.00163-0.02852 0-0.03125-0.0019-0.00255-0.029296 0.00251-0.03125 0-0.00195-0.00251 2e-3 -0.028779 0-0.03125-0.0022899-0.0022097-0.028916-0.029087-0.03125-0.03125-0.00258-0.00186-0.028633 0.00181-0.03125 0-0.00265-0.00176 0.00269-0.029547 0-0.03125-0.00279-0.00154-0.028433 0.00148-0.03125 0l-1.5312-0.84375a0.094395 0.094395 0 0 1-0.03125 0c-0.00251-0.00166 0.00254-0.029635 0-0.03125-0.00266-0.00142-0.028565 0.00136-0.03125 0-0.0028-0.0011-0.028427 0.00105-0.03125 0-0.00284-9.925e-4 0.00286-0.030312 0-0.03125-0.00291-7.715e-4 -0.028325 7.155e-4 -0.03125 0-0.00298-4.32e-4 -0.028262 3.747e-4 -0.03125 0-0.00254 4.879e-4 -0.028722-5.296e-4 -0.03125 0-0.00246 7.762e-4 -0.0288-8.167e-4 -0.03125 0z" style="fill:#828282"/>
</svg>
